<?xml version="1.0" encoding="utf-8"?>
<!-- Generator: Adobe Illustrator 16.0.3, SVG Export Plug-In . SVG Version: 6.00 Build 0)  -->
<!DOCTYPE svg PUBLIC "-//W3C//DTD SVG 1.1//EN" "http://www.w3.org/Graphics/SVG/1.1/DTD/svg11.dtd">
<svg version="1.1" id="Ebene_1" xmlns="http://www.w3.org/2000/svg" xmlns:xlink="http://www.w3.org/1999/xlink" x="0px" y="0px"
	 width="490.955px" height="110.243px" viewBox="0 0 490.955 110.243" enable-background="new 0 0 490.955 110.243"
	 xml:space="preserve">
<g>
	<polygon points="222.251,74.418 251.619,74.418 251.594,96.198 186.998,96.185 186.988,2.232 222.248,2.246 	"/>
	<path d="M173.258,28.298C173.258,10.106,159.104,0,132.839,0c-26.266,0-40.933,10.106-40.933,28.298v38.533
		c0,21.35,10.572,32.466,40.933,32.466c30.357,0,40.419-11.116,40.419-32.466V28.298z M139.84,64.476
		c0,4.353-0.451,10.835-6.867,10.835c-6.418,0-7.207-6.482-7.207-10.835V33.28c0-4.661,0.789-10.232,7.094-10.232
		c6.529,0,6.98,5.571,6.98,10.232V64.476z"/>
	<path d="M345.334,28.313v41.798c-0.41,15.555-9.849,25.504-24.915,26.182l-55.813,0.009V2.119l55.813,0.01
		C335.485,2.809,344.924,12.757,345.334,28.313z M309.991,24.115c-0.114-1.048-0.695-1.95-2.028-2.029
		c-1.394-0.08-10.315,0-10.315,0v54.792c0,0,8.922,0.08,10.315,0c1.333-0.078,1.914-0.981,2.028-2.028V24.115z"/>
	<path d="M80.727,28.313v41.798c-0.408,15.555-9.849,25.504-24.914,26.182L0,96.302V2.119l55.813,0.01
		C70.878,2.809,80.318,12.757,80.727,28.313z M45.386,24.115c-0.116-1.048-0.697-1.95-2.028-2.029c-1.396-0.08-10.32,0-10.32,0
		v54.792c0,0,8.923,0.08,10.32,0c1.331-0.078,1.912-0.981,2.028-2.028V24.115z"/>
</g>
<g>
	<g>
		<path d="M396.705,39.044c-0.849-0.603-1.355-1.589-1.541-2.597c-0.023-1.37,0.416-2.601,1.582-3.412
			c0.986-0.749,2.639-0.774,3.71-0.233c1.479,0.876,10.75,6.565,10.878,6.638c0.257,0.147,0.46,0.056,0.575-0.144
			c0.206-0.356,13.676-23.897,17.487-30.239c2.866-4.966,6.934-7.162,10.749-7.162c3.816,0,7.958,2.215,10.813,7.162l17.38,30.141
			c0.161,0.267,0.377,0.281,0.563,0.165c1.117-0.641,9.782-5.617,11.263-6.493c1.07-0.542,2.578-0.672,3.564,0.076
			c1.167,0.811,1.606,2.042,1.583,3.414c-0.083,1.095-0.478,1.827-1.532,2.692c-1.797,1.094-10.978,6.324-11.299,6.512
			c-0.148,0.098-0.24,0.392-0.133,0.578c0.19,0.459,11.491,19.642,16.926,29.304c1.965,3.763,2.437,8.474,0.169,12.11
			c-2.173,3.761-5.9,5.886-10.487,5.892l-33.984,0.001c-0.992-0.027-1.143,0.063-1.143,0.378v12.319
			c0.006,1.661-0.719,2.972-1.563,3.471c-1.372,0.861-2.869,0.805-4.055,0.003c-1.191-0.763-1.544-2.096-1.544-3.497V93.828
			c0-0.315-0.172-0.394-0.449-0.394l-33.844,0.009c-4.263,0-8.921-1.374-11.611-5.871c-2.483-4.463-1.348-9.263,0.833-13.041
			c4.172-7.223,16.105-27.943,16.315-28.31c0.156-0.27-0.014-0.492-0.158-0.577C405.985,44.593,398.124,39.908,396.705,39.044z
			 M465.466,49.578c-7.064,4.175-21.637,12.542-21.637,12.542v23.733c0,0.277,0.15,0.432,0.406,0.407l34.515,0.02
			c1.95,0,3.653-0.857,4.489-2.305c0.879-1.622,0.86-3.247-0.228-5.078l-16.865-29.173C465.935,49.358,465.666,49.5,465.466,49.578z
			 M414.113,49.801c0,0-15.691,27.227-16.833,29.205c-1.141,1.978-1.013,3.614-0.219,4.993c0.876,1.514,2.327,2.281,4.419,2.281
			c3.099,0,34.762-0.02,34.762-0.02c0.316,0,0.425-0.111,0.425-0.426l0.021-23.388c0,0-14.814-8.59-21.877-12.767
			C414.484,49.47,414.27,49.479,414.113,49.801z M440.146,9.059c-1.44-0.063-3.174,1.202-4.02,2.665
			c0,0-17.656,30.579-17.938,31.046s-0.089,0.578,0.076,0.673s21.92,12.605,21.92,12.605s21.589-12.559,21.804-12.687
			c0.207-0.124,0.257-0.398,0.16-0.564c-0.218-0.379-17.937-31.103-17.937-31.103C443.323,10.259,441.548,8.996,440.146,9.059z"/>
		<path d="M463.966,60.046c-2.105-0.271-5.426-0.648-7.479,0.668c-2.475,1.198-4.181,3.783-4.029,6.686
			c0.067,2.762,1.98,5.033,4.292,6.157c2.239,1.086,5.442-0.299,7.403,1.368c0.546,0.583,0.609,1.45,0.45,2.236
			c-0.241,0.707-0.984,1.071-1.528,1.396c0.752-0.185-5.197,1.276-6.435-1.382c-0.037-0.087-0.103-0.272-0.103-0.272l-4.461,1.123
			c0,0,0.863,2.515,1.045,2.758c1.783,3.083,5.514,2.865,8.931,2.847c2.933-0.015,4.643-1.154,6.109-3.073
			c1.545-2.202,1.758-5.489,0.339-7.823c-0.853-1.63-2.004-2.729-3.9-3.103l-5.898-0.314c-0.929-0.461-1.748-1.326-1.751-2.354
			c0.058-0.989,0.881-1.959,1.807-2.264c1.776,0.035,3.891-0.577,5.305,0.79c0.671,0.838,0.713,1.009,0.713,1.009l4.589-1.388
			c0,0-0.8-2.362-3.501-4.345L463.966,60.046z"/>
		<polygon points="448.555,24.943 432.128,24.944 432.126,48.13 448.56,48.133 448.55,43.588 436.658,43.592 436.659,38.964 
			444.219,38.961 444.218,34.523 436.66,34.528 436.655,29.581 448.554,29.58 		"/>
		<path d="M411.158,59.932l-0.005,23.383l11.595,0.003l1.672-0.368c2.176-0.631,3.489-2.44,3.756-4.95
			c0.006-4.495,0.017-8.497,0.017-13.791c-0.419-2.314-2.232-3.928-4.429-4.26L411.158,59.932z M423.364,77.673
			c-0.067,0.307-0.212,0.561-0.587,0.701l-6.686,0.001V64.937l6.686,0.002c0.375,0.141,0.52,0.394,0.587,0.701V77.673z"/>
	</g>
	<g>
		<path d="M480.826,22.875c5.364,0,9.715-4.349,9.715-9.714c0-5.365-4.351-9.716-9.715-9.716c-5.366,0-9.717,4.352-9.717,9.716
			C471.109,18.526,475.46,22.875,480.826,22.875z M480.826,13.161 M472.825,13.161c0-4.419,3.582-8.002,8.001-8.002
			c4.417,0,7.999,3.583,7.999,8.002s-3.582,8-7.999,8C476.407,21.161,472.825,17.58,472.825,13.161z M480.826,13.161"/>
		<path d="M477.453,8.387l0.016,10.063h1.841l0.005-3.174l0.67-0.001l1.973,3.176l2.18-0.004l-1.904-3.167
			c0.659-0.385,1.464-0.964,1.805-1.631c0.581-1.009,0.478-2.401,0.07-3.468c-1.085-2.385-4.04-1.686-6.407-1.784
			C477.629,8.395,477.453,8.387,477.453,8.387z M479.84,10.344c1.236-0.006,1.993-0.183,2.535,0.567
			c0.283,0.403,0.367,1.007,0.206,1.511c-0.471,1.319-1.818,0.849-2.914,0.972c-0.123,0.015-0.348-0.008-0.348-0.008l-0.005-3.042
			C479.314,10.344,479.724,10.333,479.84,10.344z"/>
	</g>
</g>
</svg>
